<svg xmlns="http://www.w3.org/2000/svg" viewBox="0 0 1280 1024"><path d="M640 908.8l-12.8-9.6C508.8 793.6 441.6 720 374.4 649.6c-32-35.2-67.2-70.4-105.6-112-54.4-60.8-73.6-140.8-57.6-220.8 16-73.6 60.8-134.4 121.6-166.4 38.4-19.2 70.4-28.8 102.4-28.8 67.2 0 131.2 41.6 201.6 137.6 70.4-89.6 137.6-134.4 208-134.4 32 0 64 9.6 96 25.6 60.8 32 108.8 92.8 121.6 166.4 16 76.8-6.4 156.8-57.6 217.6-70.4 70.4-112 112-147.2 150.4-57.6 60.8-217.6 224-217.6 224zM438.4 153.6c-25.6 0-54.4 6.4-89.6 25.6-51.2 25.6-92.8 80-105.6 144-12.8 67.2 6.4 137.6 51.2 192 38.4 38.4 73.6 76.8 105.6 112 64 67.2 128 137.6 240 236.8 102.4-102.4 144-144 198.4-201.6 35.2-38.4 76.8-80 147.2-150.4 44.8-54.4 64-121.6 51.2-192-12.8-64-51.2-118.4-105.6-144-28.8-16-57.6-22.4-83.2-22.4-64 0-128 44.8-195.2 137.6L640 310.4l-12.8-19.2c-67.2-92.8-128-137.6-188.8-137.6z"/></svg>
