<svg xmlns="http://www.w3.org/2000/svg" width="160" height="160" viewBox="0 0 160 160"><path fill="#00adee" d="M85.2 134.1l-12.7-8.6-13.1 8.5 6.2-57.4h13.9"/><path fill="#00adee" d="M124.2 110.8l-15.2 1.4-4.8 14.9-31.9-54 7.5-5.5"/><path fill="#00adee" d="M87.7 92.3l-7.4-4.2-4 7.5-5.5-6.5-6.5 5.5-2.6-8.1-8.1 2.8.5-8.4-8.6-.4 3.5-7.7-7.9-3.4 6.1-5.9-6.2-6 7.9-3.4-3.6-7.8 8.5-.3-.5-8.6 8.1 2.9 2.5-8.3 6.6 5.6 5.3-6.8 4.2 7.6 7.3-4.4 1.2 8.6 8.4-1.4-2 8.4 8.4 1.7-4.9 7.1 7.2 4.6-7.1 4.9 4.9 6.9-8.3 2 2.1 8.2-8.4-1.2"/><path fill="#fff" d="M75 51.4L77.2 75l-5.9.5-1.2-12.7c-.2-1.8-.3-2.9-.4-3.3-.1-.4-.4-.6-.8-.8-.4-.2-1.3-.2-2.7 0l-.6.1-.3-2.8c2.8-.9 4.8-2.3 6.1-4.4l3.6-.2z"/><path fill="#fff" d="M73.1 43.1c-11.2 0-20.4 9.1-20.4 20.4s9.1 20.4 20.4 20.4c11.2 0 20.4-9.1 20.4-20.4s-9.2-20.4-20.4-20.4zm0 38c-9.7 0-17.6-7.8-17.6-17.6s7.8-17.6 17.6-17.6 17.6 7.8 17.6 17.6-7.9 17.6-17.6 17.6z"/></svg>