<svg xmlns="http://www.w3.org/2000/svg" width="160" height="160" viewBox="0 0 160 160"><path fill="#ccc" d="M142 16H18c-1.1 0-2 .9-2 2v124c0 1.1.9 2 2 2h124c1.1 0 2-.9 2-2V18c0-1.1-.9-2-2-2z"/><path fill="#333" d="M16 22h128v120c0 1.1-.9 2-2 2H18c-1.1 0-2-.9-2-2V22z"/><circle fill="#f33" cx="19" cy="19" r="1"/><circle fill="#ff3" cx="23" cy="19" r="1"/><circle fill="#39b54a" cx="27" cy="19" r="1"/><path fill="#2d2d2d" d="M25 144h-7c-1.1 0-2-.9-2-2V22h9v122z"/><text transform="translate(19 29)" fill="#777" font-family="'Courier'" font-size="4">1</text><text transform="translate(19 37)" fill="#777" font-family="'Courier'" font-size="4">2</text><text transform="translate(19 45)" fill="#777" font-family="'Courier'" font-size="4">3</text><text transform="translate(19 53)" fill="#777" font-family="'Courier'" font-size="4">4</text><text transform="translate(19 61)" fill="#777" font-family="'Courier'" font-size="4">5</text><text transform="translate(19 69)" fill="#777" font-family="'Courier'" font-size="4">6</text><text transform="translate(19 77)" fill="#777" font-family="'Courier'" font-size="4">7</text><text transform="translate(19 85)" fill="#777" font-family="'Courier'" font-size="4">8</text><text transform="translate(19 93)" fill="#777" font-family="'Courier'" font-size="4">9</text><text transform="translate(19 101)" fill="#777" font-family="'Courier'" font-size="4">10</text><text transform="translate(19 109)" fill="#777" font-family="'Courier'" font-size="4">11</text><text transform="translate(19 117)" fill="#777" font-family="'Courier'" font-size="4">12</text><text transform="translate(19 125)" fill="#777" font-family="'Courier'" font-size="4">13</text><text transform="translate(19 133)" fill="#777" font-family="'Courier'" font-size="4">14</text><text transform="translate(27 29)" fill="#9a6e35" font-family="'Courier'" font-size="4">!!!</text><text transform="translate(27 37)" fill="#9a6e35" font-family="'Courier'" font-size="4">%html</text><text transform="translate(27 45)" fill="#9a6e35" font-family="'Courier'" font-size="4">%head</text><text transform="translate(27 53)" fill="#9a6e35" font-family="'Courier'" font-size="4">%meta</text><text transform="translate(48.6 53)" fill="#fff" font-family="'Courier'" font-size="4">(</text><text transform="translate(51 53)" fill="#d1ca7e" font-family="'Courier'" font-size="4">charset</text><text transform="translate(67.8 53)" fill="#fff" font-family="'Courier'" font-size="4">=</text><text transform="translate(70.2 53)" fill="#96b38b" font-family="'Courier'" font-size="4">&apos;utf-8&apos;</text><text transform="translate(87 53)" fill="#fff" font-family="'Courier'" font-size="4">)</text><text transform="translate(27 61)" fill="#d1ca7e" font-family="'Courier'" font-size="4"></text><text transform="translate(36.6 61)" fill="#9a6e35" font-family="'Courier'" font-size="4">%meta</text><text transform="translate(48.6 61)" fill="#fff" font-family="'Courier'" font-size="4">(</text><text transform="translate(51 61)" fill="#d1ca7e" font-family="'Courier'" font-size="4">content</text><text transform="translate(67.8 61)" fill="#fff" font-family="'Courier'" font-size="4">=</text><text transform="translate(70.2 61)" fill="#96b38b" font-family="'Courier'" font-size="4">&quot;detail&quot;</text><text transform="translate(89.4 61)" fill="#d1ca7e" font-family="'Courier'" font-size="4">name</text><text transform="translate(101.4 61)" fill="#fff" font-family="'Courier'" font-size="4">=</text><text transform="translate(103.8 61)" fill="#96b38b" font-family="'Courier'" font-size="4">&quot;description&quot;</text><text transform="translate(135 61)" fill="#fff" font-family="'Courier'" font-size="4">)</text><text transform="translate(27 69)" fill="#d1ca7e" font-family="'Courier'" font-size="4"></text><text transform="translate(36.6 69)" fill="#9a6e35" font-family="'Courier'" font-size="4">%meta</text><text transform="translate(48.6 69)" fill="#fff" font-family="'Courier'" font-size="4">(</text><text transform="translate(51 69)" fill="#d1ca7e" font-family="'Courier'" font-size="4">content</text><text transform="translate(67.8 69)" fill="#fff" font-family="'Courier'" font-size="4">=</text><text transform="translate(70.2 69)" fill="#96b38b" font-family="'Courier'" font-size="4">&apos;width=device-width&apos;</text><text transform="translate(118.2 69)" fill="#fff" font-family="'Courier'" font-size="4">)</text><text transform="translate(27 77)" fill="#d1ca7e" font-family="'Courier'" font-size="4"></text><text transform="translate(36.6 77)" fill="#9a6e35" font-family="'Courier'" font-size="4">%title</text><text transform="translate(27 85)" fill="#d1ca7e" font-family="'Courier'" font-size="4"></text><text transform="translate(41.4 85)" fill="#fff" font-family="'Courier'" font-size="4">-</text><text transform="translate(43.8 85)" fill="#d1ca7e" font-family="'Courier'" font-size="4">if content_for?</text><text transform="translate(82.2 85)" fill="#fff" font-family="'Courier'" font-size="4">(</text><text transform="translate(84.6 85)" fill="#96b38b" font-family="'Courier'" font-size="4">:title</text><text transform="translate(99 85)" fill="#fff" font-family="'Courier'" font-size="4">)</text><text transform="translate(27 93)" fill="#d1ca7e" font-family="'Courier'" font-size="4"></text><text transform="translate(46.2 93)" fill="#fff" font-family="'Courier'" font-size="4">=</text><text transform="translate(48.6 93)" fill="#d1ca7e" font-family="'Courier'" font-size="4">yield</text><text transform="translate(65.4 93)" fill="#96b38b" font-family="'Courier'" font-size="4">:title</text><text transform="translate(27 101)" fill="#d1ca7e" font-family="'Courier'" font-size="4"></text><text transform="translate(41.4 101)" fill="#fff" font-family="'Courier'" font-size="4">-</text><text transform="translate(43.8 101)" fill="#d1ca7e" font-family="'Courier'" font-size="4">else</text><text transform="translate(27 109)" fill="#d1ca7e" font-family="'Courier'" font-size="4"></text><text transform="translate(46.2 109)" fill="#fff" font-family="'Courier'" font-size="4">=</text><text transform="translate(48.6 109)" fill="#d1ca7e" font-family="'Courier'" font-size="4">title</text><text transform="translate(27 125)" fill="#d1ca7e" font-family="'Courier'" font-size="4"></text><text transform="translate(36.6 125)" fill="#fff" font-family="'Courier'" font-size="4">=</text><text transform="translate(39 125)" fill="#d1ca7e" font-family="'Courier'" font-size="4">stylesheet_link_tag</text><text transform="translate(89.4 125)" fill="#96b38b" font-family="'Courier'" font-size="4">:application</text><text transform="translate(27 133)" fill="#d1ca7e" font-family="'Courier'" font-size="4"></text><text transform="translate(36.6 133)" fill="#fff" font-family="'Courier'" font-size="4">=</text><text transform="translate(39 133)" fill="#d1ca7e" font-family="'Courier'" font-size="4">javascript_include_tag</text><text transform="translate(96.6 133)" fill="#96b38b" font-family="'Courier'" font-size="4">&apos;app.js&apos;</text><path fill="#222" d="M141.5 136c.3 0 .5-.2.5-.5v-110c0-.3-.2-.5-.5-.5s-.5.2-.5.5v110c0 .3.2.5.5.5z"/><path fill="#777" d="M141.5 56c.3 0 .5-.2.5-.5v-30c0-.3-.2-.5-.5-.5s-.5.2-.5.5v30c0 .3.2.5.5.5z"/></svg>