<svg xmlns="http://www.w3.org/2000/svg" width="160" height="160" viewBox="0 0 160 160"><path fill="#ccc" d="M98.8 131.4c.1 1.5 1.3 2.6 2.8 2.7l10.4.9v1H48v-1l11.5-.9c1.5-.1 2.6-1.3 2.8-2.7l1.8-20.4h33l1.7 20.4z"/><path fill="#e0e0e0" d="M48 135h64v1H48z"/><path fill="#383838" d="M149 112H11c-1.7 0-3-1.3-3-3V27c0-1.7 1.3-3 3-3h138c1.7 0 3 1.3 3 3v82c0 1.7-1.3 3-3 3z"/><path fill="#f9f9f9" d="M16 32h128v72H16z"/><circle fill="#ccc" cx="80" cy="108.1" r="2"/><circle fill="#2b2b2b" cx="80" cy="28" r=".5"/><circle fill="#383838" cx="80" cy="28" r=".2"/></svg>