<svg xmlns="http://www.w3.org/2000/svg" width="160" height="160" viewBox="0 0 160 160"><path fill="#4578AD" d="M38.284 34.973c-13.307 3.653-20.64 13.604-18.45 21.534 2.19 7.93 13.51 27.044 14.233 27.607 5.442 4.865 16.15 9.55 20.114 8.456l.177-.05c3.808-1.052 11.535-12.72 12.447-17.905.44-1.675-.1-23.83-1.928-30.45-1.83-6.623-13.286-12.837-26.592-9.192z"/><path fill="#FFF" d="M35.537 72.273c1.83 6.62 9.908 13.77 17.02 11.834 7.114-1.942 10.92-10.92 8.732-18.848 0 0-3.54 9.144-10.768 11.14-7.227 1.997-14.985-4.127-14.985-4.127zM38.786 53.887c-1.195-1.835-4.754-2.645-7.243-.645-2.49 2.003-3.203 5.695-1.77 7.89 0 0 .6-3.695 3.128-5.737 2.528-2.043 5.886-1.508 5.886-1.508zM47.534 51.394c.105-2.184 2.767-4.674 5.93-4.2 3.163.48 5.647 3.31 5.522 5.925 0 0-2.39-2.892-5.605-3.382-3.217-.494-5.846 1.656-5.846 1.656zM46.235 69.318c-.237-.85.57-2.278 1.964-2.668 1.393-.388 2.8.242 3.082 1.26l-5.047 1.408z"/><path fill="#F48473" d="M112.886 39.66c20.78 7.63 31.17 24.53 26.6 36.913-4.572 12.385-25.244 41.423-26.475 42.224-9.357 7.046-27.11 13.095-33.297 10.813l-.275-.1c-5.95-2.2-16.732-21.894-17.492-30.307-.48-2.738 3.368-38.088 7.183-48.428 3.815-10.342 22.968-18.736 43.756-11.116z"/><path fill="#FFF" d="M112.25 99.667c-3.812 10.34-17.693 20.683-28.805 16.63-11.11-4.062-15.988-18.93-11.42-31.312 0 0 4.427 15.1 15.713 19.264 11.286 4.165 24.513-4.583 24.513-4.583zM109.533 69.832c2.16-2.772 7.958-3.588 11.67-.056 3.71 3.54 4.353 9.537 1.77 12.858 0 0-.465-5.993-4.23-9.598-3.768-3.606-9.21-3.204-9.21-3.204zM95.884 64.67c.126-3.507-3.795-7.846-8.918-7.512-5.12.34-9.474 4.528-9.625 8.727 0 0 4.21-4.3 9.42-4.65 5.207-.358 9.124 3.435 9.124 3.435zM95.547 93.503c.49-1.33-.604-3.72-2.78-4.53-2.178-.81-4.514.01-5.1 1.598l7.88 2.933z"/></svg>