<svg xmlns="http://www.w3.org/2000/svg" width="160" height="160" viewBox="0 0 160 160"><path fill="#888" d="M38 67h34v7H38zM88 67h34v7H88z"/><path fill="#bbb" d="M80 14c-19.9 0-36 16.1-36 35.9V74h12V49.7C56 36.6 66.7 26 80 26s24 10.6 24 23.7V74h12V49.9C116 30.1 99.9 14 80 14z"/><path fill="#888" d="M88 74c0 4.4-3.6 8-8 8s-8-3.6-8-8H38v30c0 23.2 18.8 42 42 42s42-18.8 42-42V74H88z"/><path fill="#eee" d="M88 74c0 4.4-3.6 8-8 8s-8-3.6-8-8H38v24h84V74H88z"/><path fill="#888" d="M88 74c0 4.4-3.6 8-8 8s-8-3.6-8-8h-1c0 5 4 9 9 9s9-4 9-9h-1z"/><path fill="#aaa" d="M80 20c-16.6 0-30 13.4-30 30v24h6V49.7C56 36.6 66.7 26 80 26s24 10.6 24 23.7V74h6V50c0-16.6-13.4-30-30-30z"/><path fill="#ccc" d="M111 74h-2V50c0-16-13-29-29-29S51 34 51 50v24h-2V50c0-17.1 13.9-31 31-31s31 13.9 31 31v24z"/><path fill="#e0e0e0" d="M38 74h1v24h-1zM121 74h1v24h-1z"/><path fill="#fff" d="M71 74H38l1 1h31M122 74H89l1 1h31"/><path fill="#ccc" d="M121 98H39v6c0 22.6 18.3 41 41 41s41-18.3 41-41v-6z"/><path fill="#fff" d="M39 98h82v1H39z"/><circle fill="#ccc" cx="80" cy="100" r="11.9"/><circle fill="#eee" cx="80" cy="100" r="10"/><circle fill="#eee" cx="80" cy="120" r="6.1"/><circle fill="#555" cx="80" cy="120" r="4"/><path fill="#eee" d="M74 102h12v18H74z"/><path fill="#555" d="M76 102h8v18h-8z"/><circle fill="#555" cx="80" cy="100" r="8"/></svg>