<svg xmlns="http://www.w3.org/2000/svg" width="160" height="160" viewBox="0 0 160 160"><g fill="#e0e0e0"><path d="M48.5 36c-.6 0-1-.4-1-1v-2c0-.6.4-1 1-1s1 .4 1 1v2c0 .6-.4 1-1 1zM48.5 48c-.6 0-1-.4-1-1v-6c0-.6.4-1 1-1s1 .4 1 1v6c0 .6-.4 1-1 1zM48.5 58c-.6 0-1-.4-1-1v-6c0-.6.4-1 1-1s1 .4 1 1v6c0 .6-.4 1-1 1z"/></g><path fill="#e0e0e0" d="M106.5 16h-52c-3.3 0-6 2.7-6 6v116c0 3.3 2.7 6 6 6h52c3.3 0 6-2.7 6-6V22c0-3.3-2.7-6-6-6z"/><path fill="#eee" d="M106.5 17h-52c-2.8 0-5 2.2-5 5v116c0 2.8 2.2 5 5 5h52c2.8 0 5-2.2 5-5V22c0-2.8-2.2-5-5-5z"/><path fill="#383838" d="M52.5 32h56v96h-56z"/><g><path fill="#383838" d="M85 26h-9c-.3 0-.5-.2-.5-.5s.2-.5.5-.5h9c.3 0 .5.2.5.5s-.2.5-.5.5z"/><circle fill="#2b2b2b" cx="80.5" cy="21" r=".5"/><circle fill="#383838" cx="80.5" cy="21" r=".2"/><circle fill="#2b2b2b" cx="70.5" cy="25.5" r="1"/><circle fill="#383838" cx="70.5" cy="25.5" r=".4"/></g><g><circle fill="#fff" cx="80.5" cy="135" r="5"/><path fill="#383838" d="M84 131.5l-7.1 7.1c-2-2-2-5.1 0-7.1s5.2-2 7.1 0z"/><circle fill="#e0e0e0" cx="80.5" cy="135" r="4.4"/></g></svg>